<?xml version="1.0" encoding="utf-8"?>
<!-- Generator: Adobe Illustrator 27.5.0, SVG Export Plug-In . SVG Version: 6.00 Build 0)  -->
<svg version="1.1" xmlns="http://www.w3.org/2000/svg" xmlns:xlink="http://www.w3.org/1999/xlink" x="0px" y="0px"
	 viewBox="0 0 500 500" style="enable-background:new 0 0 500 500;" xml:space="preserve">
<g id="BACKGROUND">
	<rect style="fill:#FFFFFF;" width="500" height="500"/>
</g>
<g id="OBJECTS">
	<g>
		<path style="fill:#EEF5FF;" d="M132.838,403.231c120.251,76.553,264.88,15.853,304.607-52.07
			c39.139-66.928-10.124-166.301-115.769-160.848c-105.635,5.45-127.791-69.984-154.981-88.892
			c-44.328-30.82-83.487-13.869-109.014,12.629c-0.835,0.867-1.652,1.75-2.465,2.643c-8.862,9.74-15.922,20.561-20.787,30.68
			c-0.569,1.182-1.109,2.351-1.616,3.519c-0.187,0.408-0.371,0.826-0.545,1.241C13.777,195.904,11.413,325.934,132.838,403.231z"/>
		<g>
			<g>
				<defs>
					<path id="_x3C_Grupo_x3E__00000161608757439246210040000005302196544944178864_" d="M31.643,152.21
						c-18.503,43.771-20.87,173.8,100.566,251.105c120.243,76.545,264.876,15.853,304.597-52.072
						c39.139-66.928-10.119-166.304-115.763-160.853s-127.788-69.988-154.978-88.889C101.781,56.814,48.405,112.557,31.643,152.21z"
						/>
				</defs>
				<clipPath id="_x3C_Grupo_x3E__00000080181710677165295570000017634230946553964472_">
					<use xlink:href="#_x3C_Grupo_x3E__00000161608757439246210040000005302196544944178864_"  style="overflow:visible;"/>
				</clipPath>
				
					<rect x="-67.71" y="376.902" style="clip-path:url(#_x3C_Grupo_x3E__00000080181710677165295570000017634230946553964472_);fill:#CEDDEF;" width="635.238" height="198.15"/>
				
					<ellipse style="clip-path:url(#_x3C_Grupo_x3E__00000080181710677165295570000017634230946553964472_);fill:#BACEE0;" cx="163.644" cy="402.744" rx="62.014" ry="13.011"/>
			</g>
			<path id="_x3C_Grupo_x3E__00000013156053691091903920000008962883997431127223_" style="fill:#EEF5FF;" d="M351.951,125.062
				c-4.618,13.724-35.715,39.467-69.951,30.694c-32.24-8.262-46.738-43.257-37.745-60.23c7.995-15.09,27.79-17.834,45.294-3.859
				c17.504,13.975,33.531,7.892,44.099,6.819C344.782,97.357,356.975,110.132,351.951,125.062z"/>
		</g>
	</g>
	<g>
		<g>
			<path style="fill:#CEDDEF;" d="M400.089,188.643l18.745-5.991l0.591-15.088c4.492-3.401,8.251-7.582,11.149-12.281l14.707-0.775
				l4.299-19.755l-12.622-8.774c-0.342-2.714-0.925-5.435-1.788-8.135c-0.863-2.7-1.967-5.254-3.261-7.664l5.721-13.99
				l-15.101-13.73l-12.814,7.549c-5.086-2.147-10.574-3.374-16.205-3.539l-9.231-11.949l-18.745,5.99l-0.591,15.088
				c-4.492,3.401-8.251,7.582-11.149,12.281l-14.776,1.089l-4.34,19.943l12.732,8.271c0.343,2.714,0.925,5.435,1.788,8.135
				c0.863,2.7,1.967,5.254,3.261,7.664l-6.594,13.195l15.412,14.013l13.376-7.038c5.086,2.148,10.574,3.374,16.205,3.539
				L400.089,188.643z M366.814,139.69c-4.478-14.012,3.251-29,17.263-33.478c14.012-4.478,29,3.251,33.478,17.263
				c4.478,14.012-3.251,29-17.263,33.478C386.28,161.431,371.291,153.702,366.814,139.69z"/>
			<path style="fill:#CEDDEF;" d="M449.209,258.822l13.47-4.305l0.425-10.842c3.228-2.444,5.929-5.448,8.012-8.825l10.569-0.556
				l3.089-14.196l-9.07-6.305c-0.246-1.95-0.665-3.906-1.285-5.846c-0.62-1.94-1.413-3.776-2.344-5.507l4.111-10.053l-10.852-9.866
				l-9.208,5.425c-3.655-1.543-7.598-2.424-11.645-2.543l-6.633-8.586l-13.47,4.305l-0.425,10.842
				c-3.228,2.444-5.929,5.448-8.012,8.825l-10.618,0.783l-3.119,14.331l9.149,5.943c0.246,1.95,0.665,3.906,1.285,5.846
				c0.62,1.94,1.413,3.776,2.344,5.507l-4.739,9.482l11.075,10.07l9.612-5.058c3.655,1.543,7.598,2.424,11.645,2.543
				L449.209,258.822z M425.298,223.645c-3.218-10.069,2.336-20.839,12.405-24.057c10.069-3.218,20.839,2.336,24.057,12.405
				c3.218,10.069-2.336,20.839-12.405,24.057C439.286,239.267,428.516,233.714,425.298,223.645z"/>
		</g>
		<path style="fill:#CEDDEF;" d="M53.743,241.274l5.811,12.892l10.82-0.813c2.795,2.928,6.088,5.27,9.68,6.954l1.757,10.436
			l14.455,1.452l5.231-9.729c1.91-0.467,3.805-1.105,5.661-1.942c1.857-0.837,3.59-1.834,5.204-2.956l10.456,2.939l8.566-11.905
			l-6.439-8.53c1.117-3.807,1.543-7.825,1.2-11.859l7.775-7.568l-5.811-12.892l-10.82,0.813c-2.795-2.928-6.088-5.27-9.68-6.954
			l-1.987-10.459l-14.593-1.466l-4.862,9.766c-1.91,0.467-3.805,1.105-5.661,1.942s-3.59,1.834-5.205,2.956l-9.96-3.628
			l-8.743,12.15l6.12,8.974c-1.117,3.807-1.543,7.825-1.2,11.859L53.743,241.274z M85.967,213.511
			c9.637-4.344,20.97-0.053,25.314,9.584c4.344,9.637,0.053,20.97-9.584,25.314c-9.637,4.344-20.97,0.053-25.314-9.584
			C72.04,229.188,76.33,217.854,85.967,213.511z"/>
	</g>
	<g>
		<g>
			<path style="fill:#F89D13;" d="M301.021,166.093c-7.296,0-13.232,5.935-13.232,13.232v46.74c1.358,1.312,2.741,2.6,4.115,3.897
				v-50.637c0-5.027,4.09-9.117,9.117-9.117h25.941v-4.114H301.021z"/>
		</g>
		<g>
			<path style="fill:#F89D13;" d="M93.339,275.662c-7.296,0-13.232,5.935-13.232,13.232v46.74c1.358,1.312,2.741,2.6,4.115,3.897
				v-50.637c0-5.027,4.09-9.117,9.117-9.117h25.941v-4.114H93.339z"/>
		</g>
		<path style="fill:#F89D13;" d="M208.392,170.86v-4.303h-35.916c-7.296,0-13.231,5.935-13.231,13.232v130.719
			c-2.756,0.198-4.753,0.781-4.753,1.471c0,0.852,3.049,1.543,6.81,1.543s6.811-0.691,6.811-1.543c0-0.69-1.998-1.273-4.753-1.471
			V179.789c0-5.027,4.09-9.117,9.117-9.117h25.941v0.188H208.392z"/>
		<path style="fill:#F89D13;" d="M284.612,310.508V179.789c0-7.296-5.935-13.232-13.231-13.232h-93.07v4.303h83.058v-0.188h10.011
			c5.027,0,9.117,4.09,9.117,9.117v130.719c-2.755,0.198-4.753,0.781-4.753,1.471c0,0.852,3.049,1.543,6.81,1.543
			c3.762,0,6.811-0.691,6.811-1.543C289.365,311.289,287.368,310.706,284.612,310.508z"/>
	</g>
	<g>
		<g>
			<path style="fill:#297EEC;" d="M445.845,227.809H322.07c-1.23,0-2.227-0.997-2.227-2.227V134.35c0-1.23,0.997-2.227,2.227-2.227
				h123.775c1.23,0,2.227,0.997,2.227,2.227v91.232C448.072,226.812,447.075,227.809,445.845,227.809z"/>
			<path style="fill:#DFE9F7;" d="M443.489,225.602H324.426c-1.164,0-2.108-0.944-2.108-2.108v-77.672
				c0-1.164,0.944-2.108,2.108-2.108h119.064c1.164,0,2.108,0.944,2.108,2.108v77.672
				C445.597,224.658,444.654,225.602,443.489,225.602z"/>
			<path style="fill:#FFFFFF;" d="M385.746,190.399h-57.894c-1.346,0-2.437-1.091-2.437-2.437v-37.906
				c0-1.346,1.091-2.437,2.437-2.437h57.894c1.346,0,2.437,1.091,2.437,2.437v37.906
				C388.183,189.308,387.092,190.399,385.746,190.399z"/>
			<path style="fill:#FFFFFF;" d="M443.667,224.205H391.23c-0.086,0-0.157-0.07-0.157-0.157v-76.273c0-0.086,0.07-0.157,0.157-0.157
				h52.437c0.086,0,0.157,0.07,0.157,0.157v76.273C443.823,224.135,443.753,224.205,443.667,224.205z"/>
			<path style="fill:#FFFFFF;" d="M388.026,224.205h-62.455c-0.086,0-0.157-0.07-0.157-0.157v-29.281
				c0-0.086,0.07-0.157,0.157-0.157h62.455c0.086,0,0.157,0.07,0.157,0.157v29.281C388.183,224.135,388.113,224.205,388.026,224.205
				z"/>
		</g>
		
			<ellipse transform="matrix(0.1595 -0.9872 0.9872 0.1595 141.4657 440.1765)" style="fill:#FFFFFF;" cx="329.235" cy="137.01" rx="1.554" ry="1.554"/>
		
			<ellipse transform="matrix(0.1595 -0.9872 0.9872 0.1595 146.3936 445.9644)" style="fill:#FFFFFF;" cx="335.098" cy="137.01" rx="1.554" ry="1.554"/>
		
			<ellipse transform="matrix(0.1595 -0.9872 0.9872 0.1595 151.3215 451.7525)" style="fill:#FFFFFF;" cx="340.961" cy="137.01" rx="1.554" ry="1.554"/>
	</g>
	<g>
		<path style="fill:#93BBE5;" d="M45.778,179.456h3.718v3.731c0,0.803,0.652,1.449,1.455,1.449c0.807,0,1.452-0.645,1.452-1.449
			v-3.731h3.721c0.803,0,1.452-0.639,1.452-1.442c0-0.803-0.649-1.462-1.452-1.462h-3.721v-3.714c0-0.803-0.645-1.459-1.452-1.459
			c-0.803,0-1.455,0.655-1.455,1.459v3.714h-3.718c-0.803,0-1.455,0.658-1.455,1.462C44.323,178.818,44.975,179.456,45.778,179.456z
			"/>
		<path style="fill:#93BBE5;" d="M272.945,103.803h3.718v3.731c0,0.803,0.652,1.449,1.455,1.449c0.807,0,1.452-0.645,1.452-1.449
			v-3.731h3.721c0.803,0,1.452-0.639,1.452-1.442c0-0.803-0.649-1.462-1.452-1.462h-3.721v-3.714c0-0.803-0.645-1.459-1.452-1.459
			c-0.803,0-1.455,0.655-1.455,1.459v3.714h-3.718c-0.803,0-1.455,0.658-1.455,1.462
			C271.49,103.164,272.142,103.803,272.945,103.803z"/>
		<g>
			<path style="fill:#93BBE5;" d="M69.338,157.539c0-3.579-2.914-6.493-6.49-6.493c-3.579,0-6.49,2.914-6.49,6.493
				c0,3.576,2.911,6.493,6.49,6.493C66.424,164.032,69.338,161.115,69.338,157.539z M66.848,157.539
				c0,2.206-1.794,4.004-4.001,4.004c-2.209,0-4.001-1.798-4.001-4.004c0-2.209,1.791-4.001,4.001-4.001
				C65.054,153.538,66.848,155.329,66.848,157.539z"/>
		</g>
		<g>
			<path style="fill:#93BBE5;" d="M299.459,402.744c0-3.579-2.914-6.493-6.49-6.493c-3.579,0-6.49,2.914-6.49,6.493
				c0,3.576,2.911,6.493,6.49,6.493C296.545,409.237,299.459,406.32,299.459,402.744z M296.97,402.744
				c0,2.206-1.794,4.004-4.001,4.004c-2.209,0-4.001-1.798-4.001-4.004c0-2.21,1.791-4.001,4.001-4.001
				C295.175,398.743,296.97,400.534,296.97,402.744z"/>
		</g>
		<g>
			<path style="fill:#93BBE5;" d="M306.447,89.493c0-3.579-2.914-6.493-6.49-6.493c-3.579,0-6.49,2.914-6.49,6.493
				c0,3.576,2.911,6.493,6.49,6.493C303.534,95.987,306.447,93.069,306.447,89.493z M303.958,89.493
				c0,2.206-1.794,4.004-4.001,4.004c-2.209,0-4.001-1.798-4.001-4.004c0-2.21,1.791-4.001,4.001-4.001
				C302.164,85.493,303.958,87.284,303.958,89.493z"/>
		</g>
		<g>
			<path style="fill:#93BBE5;" d="M137.316,110.619c0.909,0,1.637-0.741,1.637-1.643c0-0.912-0.728-1.63-1.637-1.63h-16.361
				c-0.906,0-1.64,0.718-1.64,1.63c0,0.902,0.734,1.643,1.64,1.643H137.316z"/>
		</g>
		<g>
			<path style="fill:#93BBE5;" d="M113.941,110.619c0.899,0,1.637-0.741,1.637-1.643c0-0.912-0.738-1.63-1.637-1.63h-3.003
				c-0.906,0-1.633,0.718-1.633,1.63c0,0.902,0.728,1.643,1.633,1.643H113.941z"/>
		</g>
		<g>
			<path style="fill:#93BBE5;" d="M368.348,396.965c0.909,0,1.637-0.741,1.637-1.643c0-0.912-0.728-1.63-1.637-1.63h-16.361
				c-0.906,0-1.64,0.718-1.64,1.63c0,0.902,0.734,1.643,1.64,1.643H368.348z"/>
		</g>
		<g>
			<path style="fill:#93BBE5;" d="M338.943,396.965c0.899,0,1.637-0.741,1.637-1.643c0-0.912-0.738-1.63-1.637-1.63h-3.003
				c-0.906,0-1.633,0.718-1.633,1.63c0,0.902,0.728,1.643,1.633,1.643H338.943z"/>
		</g>
	</g>
	<g id="XMLID_142_">
		<path id="XMLID_205_" style="fill:#448C8C;" d="M436.622,269.608c0,0,28.736,16.458,20.092,38.082
			c-0.43,0.711-0.425,6.368,1.965,9.994c1.95,2.957,3.133,6.358,3.168,9.9c0.049,5.047-0.9,11.836-5.13,18.002
			c0.048,0.008-14.091-12.871-13.94-21.783c0.151-8.912,5.174-17.167-4.892-25.419c-10.067-8.252-10.745-24.577-8.739-27.86
			C431.152,267.241,436.622,269.608,436.622,269.608z"/>
		<g id="XMLID_204_">
			<path id="XMLID_220_" style="fill:#307175;" d="M428.722,269.326c0.028-0.168,0.088-0.333,0.183-0.487
				c0.389-0.627,1.213-0.82,1.841-0.431c10.67,6.621,17.809,15.498,21.22,26.384c2.842,9.072,2.31,17.349,1.74,21.475
				c-0.229,1.658,0.126,3.357,1.026,4.913c4.68,8.084,3.374,23.854,3.316,24.521c-0.066,0.738-0.712,1.28-1.447,1.216
				c-0.735-0.064-1.28-0.711-1.216-1.447c0.013-0.155,1.291-15.599-2.966-22.951c-1.202-2.076-1.672-4.365-1.361-6.618
				c1.215-8.791,1.53-30.795-21.721-45.222C428.863,270.386,428.637,269.844,428.722,269.326z"/>
		</g>
		<path id="XMLID_195_" style="fill:#307175;" d="M487.896,305.164c0,0-6.877-5.382-7.098-9.374
			c-0.221-3.992-5.899-16.649-13.67-16.611c-0.547-0.237-8.269,0.393-10.206-6.518c-1.937-6.911-21.593-8.54-26.557-6.868
			c-0.285-0.047,24.622,28.379,24.622,28.379s7.584,1.983,11.692,0.17c4.108-1.813,7.021,6.285,7.021,6.285
			S477.657,306.846,487.896,305.164z"/>
		<path id="XMLID_162_" style="fill:#448C8C;" d="M495.099,261.473c0,0-10.901,14.589-29.641,9.763
			c-10.775-2.775-15.345-2.442-17.283-1.658c-2.746,1.111-5.66,1.741-8.619,1.606c-4.322-0.197-9.739-1.034-13.727-3.65
			c-7.756-5.087,8.383-16.49,17.259-14.637c8.875,1.854,9.043,5.577,16.736,2.751c7.693-2.826,10.74,0.021,16.577,3.718
			C482.238,263.064,495.099,261.473,495.099,261.473z"/>
		<g id="XMLID_155_">
			<path id="XMLID_219_" style="fill:#307175;" d="M422.331,262.3c0.021-0.128,0.061-0.255,0.122-0.376
				c0.328-0.661,1.13-0.932,1.791-0.605c8.642,4.281,19.794,0.471,20.878,0.083c1.06-0.572,8.086-3.853,21.217,1.466
				c12.794,5.182,27.996-2.505,28.148-2.583c0.656-0.338,1.462-0.08,1.8,0.576c0.338,0.655,0.081,1.461-0.575,1.8
				c-0.664,0.343-16.431,8.333-30.377,2.685c-12.629-5.115-18.912-1.611-18.974-1.575c-0.063,0.037-0.139,0.074-0.207,0.1
				c-0.527,0.2-13.017,4.838-23.098-0.156C422.518,263.447,422.238,262.865,422.331,262.3z"/>
		</g>
		<path id="XMLID_150_" style="fill:#307175;" d="M468.159,221.697c0,0-1.258,15.926-14.468,17.851
			c-8.896,1.296-11.448,6.562-12.165,9.862c-0.803,3.692-2.748,7.069-5.717,9.406c-3.059,2.408-7.476,4.295-13.421,3.191
			c0,0,5.863-11.516,3.652-16.47c-2.211-4.955,5.13-19.86,17.869-18.932C456.648,227.533,464.194,226.787,468.159,221.697z"/>
		<path id="XMLID_147_" style="fill:#448C8C;" d="M428.398,263.524c0,0,9.733,8.246,0.686,16.912
			c-0.316,0.729-7.457,8.928-0.252,17.734c-1.099,0.434-11.651-3.234-13.472-13.635c-0.816-4.661,0.444-9.447,3.298-13.221
			c2.179-2.881,4.763-6.911,3.58-9.782C422.934,260.866,428.398,263.524,428.398,263.524z"/>
		<g id="XMLID_145_">
			<path id="XMLID_218_" style="fill:#307175;" d="M421.97,261.84c0.038-0.228,0.135-0.45,0.294-0.639
				c0.473-0.564,1.311-0.64,1.876-0.169c0.089,0.074,8.85,7.579,0.588,18.845c-5.278,7.196,4.626,17.281,4.727,17.382
				c0.521,0.523,0.519,1.37-0.003,1.89c-0.523,0.521-1.369,0.52-1.89-0.003c-0.477-0.479-11.607-11.825-4.989-20.85
				c6.747-9.2,0.137-14.972-0.147-15.213C422.054,262.767,421.896,262.29,421.97,261.84z"/>
		</g>
		<g>
			<path id="XMLID_00000147930355533094168020000002419224341558958011_" style="fill:#448C8C;" d="M83.094,304.094
				c0,0-23.346-19.287-39.066-4.92c-0.47,0.597-5.313,2.416-9.186,1.539c-3.159-0.715-6.451-0.632-9.493,0.48
				c-4.335,1.584-9.838,4.585-13.752,10.192c-0.022-0.038,15.556,7.91,23.134,4.909c7.578-3.001,13.023-9.961,23.33-4.006
				c10.307,5.955,24.495,1.274,26.658-1.501C86.883,308.012,83.094,304.094,83.094,304.094z"/>
			<g id="XMLID_00000110447318152285524060000001537480593923125645_">
				<path id="XMLID_00000051368807549972242710000016158638341050608785_" style="fill:#307175;" d="M85.882,310.763
					c0.135-0.078,0.257-0.183,0.357-0.314c0.411-0.535,0.311-1.303-0.224-1.714c-9.105-6.997-19.003-10.246-29.418-9.656
					c-8.68,0.492-15.591,3.615-18.939,5.433c-1.345,0.73-2.913,0.974-4.535,0.705c-8.426-1.4-21.501,4.801-22.053,5.066
					c-0.61,0.294-0.866,1.021-0.574,1.63c0.292,0.609,1.021,0.866,1.63,0.575c0.128-0.061,12.933-6.132,20.597-4.859
					c2.164,0.359,4.274,0.024,6.102-0.968c7.131-3.873,25.86-11.235,45.701,4.013C84.93,310.984,85.466,311.003,85.882,310.763z"/>
			</g>
			<path id="XMLID_00000136412337941713256780000015557830889750643589_" style="fill:#307175;" d="M21.389,261.791
				c0,0,8.821,5.367,13.33,3.948c4.509-1.419,20.88-0.411,24.077,8.203c0.49,0.507,3.011,9.313,11.465,8.577
				c8.454-0.737,18.448,20.333,18.666,26.522c0.171,0.296-41.661-15.417-41.661-15.417s-5.355-7.565-5.06-12.866
				c0.294-5.301-9.88-5.15-9.88-5.15S23.796,273.822,21.389,261.791z"/>
			<path id="XMLID_00000121249800050512731330000013307846663280473752_" style="fill:#448C8C;" d="M66.73,235.614
				c0,0-11.6,18.142,1.549,36.865c7.561,10.766,9.097,15.961,9.037,18.432c-0.084,3.501,0.432,6.988,1.814,10.206
				c2.019,4.701,5.203,10.345,9.759,13.668c8.861,6.462,14.753-16.148,9.003-25.196c-5.75-9.048-9.939-7.681-10.019-17.371
				c-0.08-9.69-4.499-11.875-11.022-16.792C70.33,250.508,66.73,235.614,66.73,235.614z"/>
			<g id="XMLID_00000068639155531913568380000010666612958246842549_">
				<path id="XMLID_00000117657162003571075290000013231009821143520699_" style="fill:#307175;" d="M96.141,316.474
					c0.132-0.076,0.256-0.174,0.366-0.291c0.595-0.638,0.561-1.638-0.077-2.234c-8.339-7.779-8.77-21.705-8.792-23.066
					c0.191-1.412,0.893-10.552-10.464-22.865c-11.065-11.997-8.895-32.021-8.872-32.222c0.1-0.867-0.521-1.651-1.387-1.752
					c-0.866-0.101-1.651,0.519-1.752,1.386c-0.103,0.878-2.373,21.653,9.689,34.73c10.923,11.842,9.664,20.254,9.65,20.337
					c-0.014,0.085-0.024,0.185-0.024,0.271c-0.002,0.666,0.072,16.419,9.798,25.492C94.793,316.746,95.555,316.813,96.141,316.474z"
					/>
			</g>
			<path id="XMLID_00000005986758975758516330000003673642024873208449_" style="fill:#307175;" d="M121.969,248.847
				c0,0-17.098,8.029-13.722,23.447c2.273,10.383-2.49,15.401-5.843,17.571c-3.75,2.427-6.677,5.987-8.026,10.245
				c-1.39,4.389-1.636,10.061,2.062,16.18c0,0,10.298-11.286,16.702-10.905c6.404,0.381,19.837-13.952,13.501-27.661
				C120.308,264.015,117.989,255.355,121.969,248.847z"/>
			<path id="XMLID_00000029735994873992700820000005731644784103953808_" style="fill:#448C8C;" d="M92.257,310.272
				c0,0-13.18-7.333-18.999,6.289c-0.675,0.653-6.771,11.972-19.517,7.669c-0.022,1.397,8.434,11.544,20.702,9.224
				c5.498-1.039,10.268-4.428,13.254-9.159c2.28-3.612,5.662-8.15,9.332-8.038C97.476,315.209,92.257,310.272,92.257,310.272z"/>
			<path id="XMLID_00000098195544972373465260000000118149736050098310_" style="fill:#448C8C;" d="M98.514,313.681
				c0,0,7.463,0.165,11.599-4.065c4.136-4.23,12.435-0.338,12.435-0.338s-6.379-18.796-18.536-9.09
				C91.855,309.895,98.514,313.681,98.514,313.681z"/>
			<g id="XMLID_00000152954446492827099110000000177505348441345926_">
				<path id="XMLID_00000015321857509218835620000016794475710422043815_" style="fill:#307175;" d="M96.799,316.682
					c0.237-0.137,0.441-0.337,0.585-0.592c0.426-0.759,0.162-1.717-0.595-2.147c-0.119-0.068-12.074-6.634-21.097,7.203
					c-5.763,8.839-21.049,2.083-21.202,2.014c-0.796-0.358-1.732-0.004-2.09,0.791c-0.359,0.796-0.004,1.732,0.791,2.09
					c0.728,0.328,17.921,7.915,25.149-3.169c7.368-11.299,16.509-6.391,16.895-6.177C95.739,316.975,96.333,316.951,96.799,316.682z
					"/>
			</g>
			<g id="XMLID_00000158020710015422495970000010619610279694858401_">
				<path id="XMLID_00000150783914084107442630000013624221889922865569_" style="fill:#307175;" d="M123.337,310.647
					c0.06-0.035,0.119-0.074,0.175-0.117c0.692-0.532,0.821-1.525,0.289-2.216c-4.96-6.446-12.101-8.194-18.209-4.469
					c-3.129,1.913-9.047,7.312-9.298,7.541c-0.644,0.589-0.689,1.588-0.1,2.233c0.589,0.644,1.587,0.691,2.233,0.1
					c0.059-0.054,5.943-5.422,8.814-7.177c0.076-0.047,0.153-0.092,0.23-0.137c4.582-2.645,9.981-1.158,13.825,3.837
					C121.784,310.877,122.661,311.037,123.337,310.647z"/>
			</g>
		</g>
	</g>
	<g id="_x3C_Grupo_x3E_">
		<g>
			<g>
				<g>
					<g>
						<path style="fill:#F89D13;" d="M258.705,161.225c-0.238-0.907-0.712-1.681-1.548-2.171c-1.191-0.697-2.7-0.496-4.008-0.934
							c-2.885-0.966-3.658-5.482-1.258-7.353c1.207-0.941,2.925-1.238,3.815-2.484c1.203-1.685,0.22-4.005-0.779-5.818
							c-0.832-1.511-1.665-3.022-2.497-4.533c-1.134-2.059-2.883-4.436-5.2-4.038c-1.309,0.225-2.289,1.311-3.508,1.838
							c-2.862,1.236-6.536-1.706-5.955-4.769c0.317-1.669,1.61-3.193,1.296-4.862c-0.297-1.581-1.896-2.522-3.354-3.203
							c-1.809-0.845-3.655-1.612-5.53-2.296c-2.489-0.908-5.877-1.386-7.253,0.878c-0.536,0.882-0.588,1.974-0.992,2.924
							c-1.136,2.668-5.37,3.225-7.158,0.943c-0.914-1.167-1.148-2.722-1.851-4.027c-0.96-1.781-2.765-2.226-4.553-1.533
							c-2.221,0.861-4.615,1.048-6.859,1.822c-2.519,0.869-5.004,3.107-4.59,5.739c0.164,1.042,0.765,1.969,0.979,3.001
							c0.588,2.829-2.581,5.687-5.335,4.811c-1.764-0.561-3.161-2.285-5.011-2.226c-1.818,0.057-3.065,1.79-4.015,3.341
							c-0.913,1.49-1.826,2.98-2.738,4.47c-1.285,2.097-2.53,4.946-0.92,6.804c0.834,0.962,2.186,1.278,3.207,2.04
							c1.35,1.008,2.019,2.849,1.63,4.489c-0.389,1.64-1.813,2.985-3.472,3.279c-0.913,0.162-1.875,0.033-2.755,0.323
							c-2.55,0.841-2.798,4.324-2.401,6.98c0.299,1.998,0.689,3.983,1.169,5.946c0.376,1.538,0.977,3.262,2.446,3.853
							c1.557,0.626,3.282-0.339,4.96-0.33c2.971,0.016,5.156,3.831,3.666,6.402c-0.811,1.398-2.406,2.334-2.815,3.898
							c-0.794,3.036,3.31,5.761,6.808,8.8c1.581,1.373,3.659,2.838,5.586,2.019c1.431-0.608,2.105-2.245,3.301-3.239
							c2.376-1.974,6.682-0.276,7.071,2.788c0.189,1.493-0.389,3.098,0.231,4.469c0.85,1.882,3.344,2.197,5.408,2.243
							c1.672,0.038,3.344,0.076,5.016,0.114c2.432,0.055,5.477-0.285,6.296-2.575c0.443-1.238,0.013-2.615,0.183-3.918
							c0.389-2.981,4.539-4.657,6.89-2.783c1.41,1.124,2.14,3.147,3.859,3.693c1.654,0.525,3.338-0.592,4.715-1.648
							c1.331-1.021,2.663-2.043,3.994-3.064c1.093-0.838,2.209-1.702,2.945-2.866c0.736-1.164,1.027-2.71,0.375-3.923
							c-0.47-0.875-1.346-1.452-1.956-2.237c-1.019-1.311-1.196-3.221-0.435-4.696c0.761-1.475,2.42-2.439,4.079-2.368
							c1.511,0.064,3.001,0.905,4.468,0.535c2.038-0.514,2.802-2.955,3.221-5.015c0.336-1.651,0.672-3.302,1.008-4.953
							C258.876,164.337,259.072,162.624,258.705,161.225z M216.858,146.081c2.254-0.091,4.388,0.341,6.306,1.251
							c1.482,0.599,2.837,1.532,4.011,2.661c2.591,2.436,4.185,5.805,4.338,9.609c0.176,4.367-1.638,8.392-4.68,11.101
							c-1.226,1.084-2.601,1.986-4.177,2.567c-1.433,0.622-3.019,0.968-4.662,1.034c-6.997,0.282-13.076-4.648-14.381-11.368
							c-0.169-0.699-0.246-1.448-0.277-2.199c-0.036-0.892,0.022-1.788,0.174-2.688
							C204.471,151.519,210.002,146.357,216.858,146.081z"/>
					</g>
				</g>
			</g>
			<path style="fill:#E0850B;" d="M218.134,138.811c-11.968-0.207-21.838,9.327-22.045,21.296
				c-0.207,11.968,9.327,21.838,21.296,22.045c11.968,0.207,21.838-9.327,22.045-21.296S230.102,139.018,218.134,138.811z"/>
		</g>
	</g>
	<g>
		<g>
			<rect x="102.704" y="375.244" style="fill:#93BBE5;" width="84.619" height="4.108"/>
			<rect x="98.082" y="260.091" style="fill:#93BBE5;" width="96.12" height="97.49"/>
			<path style="fill:#93BBE5;" d="M193.538,232.295h-94.79c-0.367,0-0.665,0.298-0.665,0.665v27.13h96.12v-27.13
				C194.203,232.593,193.905,232.295,193.538,232.295z"/>
			<rect x="83.705" y="247.494" style="fill:#A9CBF7;" width="124.875" height="36.148"/>
			<rect x="102.395" y="258.721" style="fill:#93BBE5;" width="87.905" height="13.692"/>
			<rect x="105.318" y="260.638" style="fill:#71A3D1;" width="81.649" height="9.859"/>
			<polygon style="fill:#E6E7E8;" points="186.967,265.568 105.318,260.638 186.967,260.638 			"/>
			<polygon style="fill:#E6E7E8;" points="194.203,288.571 98.082,283.642 194.203,283.642 			"/>
			<polygon style="fill:#E6E7E8;" points="194.203,335.541 98.082,330.612 194.203,330.612 			"/>
			<polygon style="fill:#E6E7E8;" points="187.322,378.005 104.963,376.202 187.322,376.202 			"/>
			<circle style="fill:#93BBE5;" cx="93.153" cy="265.568" r="3.081"/>
			<circle style="fill:#93BBE5;" cx="200.159" cy="265.568" r="3.081"/>
			<g>
				<rect x="83.705" y="340.054" style="fill:#A9CBF7;" width="124.875" height="36.148"/>
				<rect x="102.395" y="351.282" style="fill:#93BBE5;" width="87.905" height="13.692"/>
				<rect x="105.318" y="353.199" style="fill:#71A3D1;" width="81.649" height="9.859"/>
				<circle style="fill:#93BBE5;" cx="93.153" cy="358.128" r="3.081"/>
				<circle style="fill:#93BBE5;" cx="200.159" cy="358.128" r="3.081"/>
			</g>
			<g>
				<rect x="83.705" y="294.322" style="fill:#A9CBF7;" width="124.875" height="36.148"/>
				<rect x="102.395" y="305.549" style="fill:#93BBE5;" width="87.905" height="13.692"/>
				<rect x="105.318" y="307.466" style="fill:#71A3D1;" width="81.649" height="9.859"/>
				
					<ellipse transform="matrix(0.1592 -0.9872 0.9872 0.1592 -230.0898 354.616)" style="fill:#93BBE5;" cx="93.153" cy="312.396" rx="3.081" ry="3.081"/>
				
					<ellipse transform="matrix(0.2298 -0.9732 0.9732 0.2298 -149.8667 435.4266)" style="fill:#93BBE5;" cx="200.159" cy="312.396" rx="3.081" ry="3.081"/>
			</g>
			<path style="fill:#71A3D1;" d="M155.89,244.146l28.208,0c0.247,0,0.447-0.2,0.447-0.447v-6.48c0-0.247-0.2-0.447-0.447-0.447
				H155.89c-0.247,0-0.447,0.2-0.447,0.447v6.48C155.443,243.946,155.643,244.146,155.89,244.146z"/>
			
				<ellipse transform="matrix(0.2284 -0.9736 0.9736 0.2284 -147.8237 291.3999)" style="fill:#71A3D1;" cx="109.93" cy="238.961" rx="2.189" ry="2.189"/>
			<circle style="fill:#71A3D1;" cx="116.028" cy="238.961" r="2.189"/>
			<polygon style="fill:#E6E7E8;" points="186.967,358.128 105.318,353.199 186.967,353.199 			"/>
			<polygon style="fill:#E6E7E8;" points="186.967,312.404 105.318,307.475 186.967,307.475 			"/>
			<path style="fill:#E6E7E8;" d="M184.544,241.701l-29.102-4.929h28.575c0.291,0,0.527,0.236,0.527,0.527V241.701z"/>
		</g>
	</g>
	<g>
		<path style="fill:#184785;" d="M426.514,203.609H228.585c-3.517,0-6.368,2.851-6.368,6.368v127.394h210.664V209.977
			C432.882,206.46,430.031,203.609,426.514,203.609z"/>
		<path style="fill:#4095F2;" d="M226.993,337.371V209.977c0-0.878,0.714-1.592,1.592-1.592h197.929
			c0.878,0,1.592,0.714,1.592,1.592v127.394H226.993z"/>
		<rect x="230.973" y="212.847" style="fill:#CEDDEF;" width="193.153" height="116.387"/>
		<polygon style="fill:#113E70;" points="295.8,379.557 328.345,379.557 360.891,379.557 363.722,377.523 292.969,377.523 		"/>
		<path style="fill:#184785;" d="M303.804,372.393c0,0-0.398,3.627-4.997,4.246l-5.837,0.884h70.752l-5.837-0.884
			c-4.599-0.619-4.997-4.246-4.997-4.246l-0.742-6.959l-47.492-1.022L303.804,372.393z"/>
		<polygon style="fill:#113E70;" points="304.654,364.412 352.146,365.434 351.418,358.597 305.273,358.597 		"/>
		<path style="fill:#184785;" d="M222.217,337.371v14.858c0,3.517,2.851,6.368,6.368,6.368h76.688h46.144h75.096
			c3.517,0,6.368-2.851,6.368-6.368v-14.858H222.217z"/>
		<path style="fill:#4095F2;" d="M338.959,348.184c0,1.27-1.03,2.3-2.299,2.3h-16.627c-1.27,0-2.299-1.03-2.299-2.3l0,0
			c0-1.27,1.03-2.299,2.299-2.299h16.627C337.929,345.885,338.959,346.914,338.959,348.184L338.959,348.184z"/>
		<rect x="238.535" y="220.336" style="fill:#F89D13;" width="179.622" height="17.854"/>
		<rect x="359.725" y="245.293" style="fill:#F89D13;" width="58.431" height="9.263"/>
		<rect x="359.725" y="254.557" style="fill:#FFFFFF;" width="58.431" height="67.272"/>
		<rect x="290.632" y="270.205" style="fill:#F89D13;" width="63.389" height="10.049"/>
		<rect x="290.632" y="280.254" style="fill:#FFFFFF;" width="63.389" height="41.575"/>
		<rect x="238.535" y="245.293" style="fill:#F89D13;" width="115.486" height="9.263"/>
		<polygon style="fill:#FFFFFF;" points="354.02,254.557 354.02,267.401 288.227,267.401 288.227,321.829 238.535,321.829 
			238.535,254.557 		"/>
	</g>
	<g>
		<g>
			<path style="fill:#0F335B;" d="M26.879,382.278c0.086,0.115,0.184,0.241,0.296,0.376l0.009,0.011
				c0.773,0.943,2.141,2.25,4.055,2.534c3.517,0.52,6.741-2.741,8.236-5.172c0.738-1.198,1.086-2.244,1.287-3.264v-0.009
				c0.307-1.566,0.27-3.069,0.764-4.966c0.086-0.328,0.187-0.67,0.31-1.023c0.273-0.793,0.652-1.658,1.184-2.618
				c0.078-0.141,0.155-0.276,0.23-0.405c0.152-0.259,0.302-0.5,0.451-0.724c0.784-1.204,1.517-1.948,2.147-2.411v-0.003
				c0.195-0.144,0.379-0.262,0.555-0.356c0.451-0.25,0.831-0.356,1.118-0.411c0.997-0.193,1.56,0.098,2.874-0.095
				c1.879-0.273,3.307-1.239,4.247-2.049c-1.112-1.138-13.339-15.581-14.974-16.055l-7.578,21.71
				C30.353,372.324,28.615,377.301,26.879,382.278z"/>
		</g>
		<g>
			<path style="fill:#0F335B;" d="M139.185,403.124h46.983c-0.382-1.319-1.249-3.551-3.305-5.316
				c-1.858-1.595-3.788-2.036-6.042-2.522c-5.769-1.245-8.032,0.318-12.206-1.285c-2.033-0.781-3.478-1.913-4.31-2.658
				c0.132-0.486,0.434-1.859-0.144-3.448c-0.543-1.494-1.552-2.333-1.963-2.638c-4.908,1.092-9.816,2.187-14.727,3.279
				c-0.313,0.555-0.618,1.132-0.911,1.73C140.337,394.805,139.45,399.282,139.185,403.124z"/>
		</g>
		<g>
			<path style="fill:#184785;" d="M133.16,239.918c4.629,14.179,9.075,28.989,13.247,44.416
				c9.691,35.837,16.503,69.821,21.245,101.337c-1.797,1.82-6.793,6.398-14.807,7.983c-8.794,1.739-15.699-1.219-17.933-2.29
				c-1.063-20.013-3.726-43.246-9.366-68.688c-4.037-18.212-8.953-34.641-14.081-49.138c0.718-13.103,1.437-26.205,2.155-39.308
				L133.16,239.918z"/>
			<g>
				<path style="fill:#184785;" d="M93.357,236.336l-26.433,80.594c-9.866,8.717-19.732,17.433-29.598,26.15
					c0.001,1.791,0.207,9.282,6.034,15.805c5.791,6.481,13.152,7.549,14.943,7.759c4.263-3.057,10.005-7.448,16.379-13.218
					c7.914-7.165,13.222-12.195,18.436-19.568c4.42-6.251,7.238-14.365,12.695-30.336c3.534-10.346,5.035-15.82,7.583-24.063
					c2.906-9.399,7.337-22.923,13.636-39.39C115.807,238.822,104.582,237.579,93.357,236.336z"/>
				<polygon style="fill:#0F335B;" points="103.093,239.645 66.924,316.929 93.357,236.336 				"/>
			</g>
		</g>
		<path style="fill:#F89D13;" d="M118.774,164.139c0,0-4.892-3.52-10.364,1.462c-3.27,2.978-2.465,7.265-3.782,14.176
			c-0.316,1.659-3.854,2.14-5.265,5.031c-0.68,1.394-0.031,5.27-0.8,6.252c-3.369,4.301-1.46,8.945,1.641,10.568
			c10.828,5.67,13.439-1.029,16.19-4.626C119.145,193.407,123.938,172.158,118.774,164.139z"/>
		<path style="fill:#297EEC;" d="M80.602,236.921c1.373,0.795,2.942,1.164,4.522,1.15c0.453-0.004,0.907-0.039,1.356-0.105
			l4.542-0.66l-0.791,4.789l-2.948,17.85c0,0,16.271,2.122,19.505-9.297l2.021-9.905h20.213c0,0-1.414,11.421,10.713,15.665
			l-3.436-25.165l1.776-9.723l6.475,5.642c1.944,1.694,4.232,2.972,6.728,3.617c4.014,1.038,9.416,0.74,12.612-6.407
			c5.558-12.431,8.691-28.804,8.691-28.804l-7.378-7.579l-14.452,21.122l-12.554-17.31c-0.508-0.699-1.248-1.196-2.088-1.4
			l-16.586-4.018h-11.933l-17.058,4.601c-1.039,0.28-1.9,1.003-2.352,1.981c-2.357,5.088-9.764,21.502-11.205,29.889
			C76.974,222.855,74.004,233.103,80.602,236.921z"/>
		<path style="fill:#A9CBF7;" d="M130.975,211.065c-0.634-7.265-8.22-20.078-11.454-24.681h-11.934c0,0,6.139,33.776,1.221,54.36
			h20.213C129.022,240.744,131.435,216.323,130.975,211.065z"/>
		<path style="fill:#A9CBF7;" d="M130.729,220.219c-6.341,2.04-14.154,3.058-20.041,3.562c-0.125,5.987-0.664,11.878-1.879,16.963
			h20.213C129.022,240.744,130.167,229.15,130.729,220.219z"/>
		<path style="fill:#184785;" d="M92.477,218.333c0,0,0.968-2.42,2.814-10.294l-0.326,10.129L92.477,218.333z"/>
		<path style="fill:#CC724A;" d="M113.214,217.849c0,0,3.326-1.512,4.388-2.876c1.061-1.364,4.691-3.294,4.691-3.294l-0.345,2.989
			c0,0,11.168-3.485,12.582-2.929c1.415,0.556-1.314,2.223-1.314,2.223s2.628-0.947,2.729-0.398c0.101,0.55-0.809,2.015-1.364,2.419
			c0,0,0.707-0.202,0.758,0.505c0.051,0.707-3.638,3.689-6.67,4.851c0,0,4.72-1.318,4.346,0c0,0-4.952,2.476-6.771,3.032
			s-12.455,1.767-12.455,1.767L113.214,217.849z"/>
		<polygon style="fill:#CC724A;" points="113.214,217.849 113.787,226.138 115.696,225.914 		"/>
		<path style="fill:#CC724A;" d="M165.701,188.5l5.678-7.549c0,0,2.21-2.484,5.306-3.941c3.783-1.781,8.742-5.154,8.742-5.154
			s1.668,1.061,0,2.628l-4.497,4.346l2.797,2.076c1.11,0.75,1.179,2.422,0.066,3.168c-0.058,0.039-0.12,0.076-0.185,0.112
			c0,0,0.606,1.819-1.213,2.678c0,0,0.051,1.314-1.263,1.87c-1.314,0.556-3.559-0.303-3.559-0.303s-0.485,2.704-4.427,3.462
			l-1.738,2.471L165.701,188.5z"/>
		<path style="fill:#CC724A;" d="M175.472,180.093l8.085-0.758c0,0,0.758,2.223-1.314,2.729c-2.072,0.505-4.194,1.314-4.194,1.314
			s0.336,3.184-2.839,4.043L175.472,180.093z"/>
		<polygon style="fill:#CC724A;" points="165.701,188.5 172.75,192.549 171.408,194.364 		"/>
		<path style="fill:#184785;" d="M91.022,237.307l-0.791,4.789c6.32-1.819,20.051-10.766,20.051-10.766l0.709-5.192l-19.517,4.596
			L91.022,237.307z"/>
		<path style="fill:#297EEC;" d="M82.532,225.584c0,0,1.415-6.165,9.702-7.176c8.287-1.011,17.383-0.303,20.92-1.415l0.713,10.309
			c0,0-14.922,9.399-22.846,10.005L82.532,225.584z"/>
		<path style="fill:#F89D13;" d="M116.951,181.629c0,0,3.046-0.696,4.457-4.457s0.535-9.897-0.405-10.743
			C120.062,165.582,116.951,181.629,116.951,181.629z"/>
		<path style="fill:#F89D13;" d="M110.054,179.44l-1.251-2.879l0.857,0.518c0,0,0.407,1.13,0.564,1.858
			C110.379,179.664,110.054,179.44,110.054,179.44z"/>
		<path style="fill:#CC724A;" d="M109.998,176.14c0,0.327,0,12.918,0,12.918s1.407,1.696,3.508,1.696
			c2.101,0,3.655-1.696,3.655-1.696v-8.128L109.998,176.14z"/>
		<path style="fill:#CC724A;" d="M115.246,183.376c-3.33,0.056-5.534-3.14-5.587-6.298l-0.085-5.008
			c-0.054-3.158,2.356-5.76,5.382-5.811l0,0c3.026-0.051,5.522,2.467,5.576,5.625l-0.049,4.994
			C120.536,180.037,118.576,183.32,115.246,183.376z"/>
		<path style="fill:#CC724A;" d="M107.939,175.93c0.434,0.896,1.334,1.357,2.01,1.03c1.257-0.609,0.752-1.59,0.319-2.487
			c-0.434-0.896-1.042-1.191-1.889-0.759C107.709,174.056,107.505,175.034,107.939,175.93z"/>
		<path style="fill:#DEAC93;" d="M108.245,175.008c0.008-0.247,0.083-0.55,0.306-0.691c0.192-0.122,0.506-0.05,0.564,0.187
			c0.011,0.046-0.064,0.075-0.081,0.029c-0.041-0.112-0.159-0.162-0.273-0.138c-0.12,0.026-0.209,0.134-0.257,0.241
			c-0.103,0.229-0.097,0.508-0.03,0.747c0.067,0.242,0.212,0.478,0.414,0.63c0.094,0.07,0.207,0.122,0.325,0.134
			c0.1,0.01,0.234-0.011,0.315-0.072c0.033-0.025,0.096,0.002,0.076,0.05c-0.044,0.101-0.116,0.183-0.226,0.208
			c-0.117,0.027-0.246,0.006-0.357-0.033c-0.251-0.089-0.446-0.294-0.579-0.52C108.305,175.547,108.236,175.276,108.245,175.008z"/>
		<path style="fill:#F89D13;" d="M117.335,163.89c0,0,2.445-1.41,4.231,3.573c1.326,3.699-1.046,6.582-1.046,6.582
			s0.176-3.068-0.599-4.69c-0.388-0.811-1.693-0.952-1.693-0.952L117.335,163.89z"/>
		<path style="fill:#F89D13;" d="M118.228,168.403c0,0-2.645-1.269-3.773,0.705c-1.128,1.975-2.292,4.513-6.241,5.219
			c-3.949,0.705-3.403-3.669,0.264-6.208C112.146,165.58,118.798,163.239,118.228,168.403z"/>
		<g>
			<g>
				<path style="fill:#B75F3D;" d="M117.179,175.913c0.007,0,0.015,0,0.023-0.002c0.206-0.029,1.238-0.202,1.297-0.759
					c0.052-0.487-0.746-1.958-0.906-2.248c-0.043-0.077-0.14-0.105-0.217-0.062c-0.077,0.043-0.105,0.14-0.062,0.217
					c0.353,0.637,0.9,1.76,0.868,2.06c-0.025,0.231-0.626,0.421-1.025,0.478c-0.087,0.012-0.148,0.093-0.135,0.18
					C117.033,175.856,117.101,175.913,117.179,175.913z"/>
			</g>
			<g>
				<path style="fill:#363435;" d="M119.686,173.138c0.021,0.272-0.162,0.507-0.409,0.526c-0.247,0.019-0.463-0.186-0.484-0.458
					c-0.021-0.272,0.162-0.507,0.409-0.526C119.449,172.662,119.665,172.867,119.686,173.138z"/>
			</g>
			<g>
				<path d="M114.101,171.886c0.038,0,0.076-0.013,0.106-0.041c0.69-0.619,1.576-0.17,1.585-0.165
					c0.078,0.04,0.174,0.01,0.215-0.068c0.041-0.078,0.01-0.174-0.068-0.215c-0.044-0.023-1.093-0.555-1.945,0.211
					c-0.065,0.059-0.071,0.16-0.012,0.225C114.014,171.868,114.058,171.886,114.101,171.886z"/>
			</g>
			<g>
				<path d="M118.499,171.487c0.034,0,0.069-0.011,0.098-0.034l0,0c0.023-0.018,0.568-0.433,1.111-0.05
					c0.072,0.051,0.171,0.034,0.222-0.038c0.051-0.072,0.033-0.171-0.038-0.222c-0.592-0.417-1.235-0.143-1.492,0.06
					c-0.069,0.055-0.081,0.155-0.026,0.224C118.405,171.466,118.451,171.487,118.499,171.487z"/>
			</g>
			<g>
				<path style="fill:#B75F3D;" d="M115.607,176.852c2.202,0.41,3.14-0.021,3.14-0.021s0.129,1.366-1.144,1.534
					C115.782,178.605,115.607,176.852,115.607,176.852z"/>
			</g>
			<g>
				<path style="fill:#FFFFFF;" d="M118.672,176.859c0,0-0.047,0.255-0.066,0.307c-0.021,0.05-0.227,0.206-1.119,0.293
					c-0.754,0.074-1.546-0.115-1.771-0.174c-0.09-0.244-0.108-0.433-0.108-0.433c0.129,0.024,0.253,0.045,0.374,0.063
					c1.598,0.247,2.443,0.027,2.689-0.056C118.672,176.859,118.672,176.859,118.672,176.859z"/>
			</g>
			<g>
				
					<ellipse transform="matrix(0.9971 -0.0766 0.0766 0.9971 -12.9628 9.3601)" style="fill:#363435;" cx="115.496" cy="173.606" rx="0.461" ry="0.508"/>
			</g>
		</g>
		<circle style="fill:#F89D13;" cx="108.244" cy="163.798" r="6.413"/>
	</g>
</g>
<g id="TEXTS">
	<g>
		<text transform="matrix(1 0 0 1 203.3268 164.3626)" style="fill:#FFFFFF; font-family:'Montserrat-Bold'; font-size:13.9771px;">API</text>
	</g>
</g>
</svg>
